<?xml version="1.0" standalone="no"?>
<!DOCTYPE svg PUBLIC "-//W3C//DTD SVG 20010904//EN"
 "http://www.w3.org/TR/2001/REC-SVG-20010904/DTD/svg10.dtd">
<svg version="1.0" xmlns="http://www.w3.org/2000/svg"
 width="295.000000pt" height="295.000000pt" viewBox="0 0 295.000000 295.000000"
 preserveAspectRatio="xMidYMid meet">
<metadata>
Created by potrace 1.11, written by Peter Selinger 2001-2013
</metadata>
<g transform="translate(0.000000,295.000000) scale(0.100000,-0.100000)"
fill="#000000" stroke="none">
<path d="M688 2759 c-109 -26 -253 -114 -343 -211 -73 -77 -119 -161 -145
-264 -19 -73 -20 -113 -20 -811 l0 -734 25 -76 c72 -213 235 -382 435 -449 44
-15 84 -19 195 -19 126 1 147 3 207 27 148 56 284 165 352 282 21 36 44 66 51
66 7 0 43 -34 80 -75 129 -145 293 -255 430 -290 74 -19 234 -19 300 -1 177
48 354 186 434 335 17 33 40 94 51 137 19 73 20 113 20 809 0 823 5 769 -78
930 -87 169 -238 292 -413 336 -109 28 -270 23 -369 -11 -139 -47 -267 -149
-347 -277 -25 -40 -50 -73 -55 -73 -6 0 -58 48 -117 108 -200 202 -345 273
-556 271 -55 -1 -117 -5 -137 -10z m442 -250 c34 -15 155 -130 485 -460 242
-241 444 -439 448 -439 4 0 7 159 7 353 0 410 3 431 75 502 47 48 92 65 170
65 75 0 131 -32 180 -103 l40 -59 0 -712 0 -712 -27 -41 c-38 -58 -117 -105
-184 -111 -110 -9 -104 -14 -594 474 -245 244 -449 444 -453 444 -4 0 -7 -159
-7 -353 0 -384 -5 -425 -56 -486 -14 -16 -50 -42 -80 -57 -47 -23 -63 -26
-119 -22 -82 7 -120 30 -170 102 l-40 58 -3 696 c-3 763 -4 748 56 805 80 76
181 97 272 56z"/>
<path d="M1057 2399 c7 -7 15 -10 18 -7 3 3 -2 9 -12 12 -14 6 -15 5 -6 -5z"/>
<path d="M2280 2400 c0 -5 19 -10 43 -10 31 0 38 3 27 10 -20 13 -70 13 -70 0z"/>
<path d="M954 2372 c-6 -4 -16 -16 -22 -27 -8 -16 -7 -24 5 -38 16 -16 17 -15
29 20 13 38 8 58 -12 45z"/>
<path d="M2200 2325 c-13 -35 -13 -40 5 -55 8 -7 15 -11 15 -9 0 2 4 18 9 36
7 24 6 35 -5 44 -11 9 -16 6 -24 -16z"/>
<path d="M920 2168 c0 -32 6 -50 20 -63 20 -18 20 -17 20 27 0 32 -6 50 -20
63 -20 18 -20 17 -20 -27z"/>
<path d="M2190 2127 c0 -27 6 -49 15 -57 13 -11 15 -6 15 33 0 27 -6 49 -15
57 -13 11 -15 6 -15 -33z"/>
<path d="M920 1968 c0 -32 6 -50 20 -63 20 -18 20 -17 20 27 0 32 -6 50 -20
63 -20 18 -20 17 -20 -27z"/>
<path d="M2190 1922 c0 -32 5 -54 15 -62 13 -11 15 -6 15 38 0 32 -5 54 -15
62 -13 11 -15 6 -15 -38z"/>
<path d="M920 1763 c0 -37 5 -54 20 -68 20 -18 20 -17 20 32 0 37 -5 54 -20
68 -20 18 -20 17 -20 -32z"/>
<path d="M2190 1712 c0 -32 5 -54 15 -62 13 -11 15 -6 15 38 0 32 -5 54 -15
62 -13 11 -15 6 -15 -38z"/>
<path d="M920 1558 c0 -32 6 -50 20 -63 20 -18 20 -17 20 27 0 32 -6 50 -20
63 -20 18 -20 17 -20 -27z"/>
<path d="M2188 1508 c-5 -47 9 -79 23 -56 14 21 10 74 -5 87 -11 10 -15 4 -18
-31z"/>
<path d="M920 1358 c0 -32 6 -50 20 -63 20 -18 20 -17 20 27 0 32 -6 50 -20
63 -20 18 -20 17 -20 -27z"/>
<path d="M920 1153 c0 -37 5 -54 20 -68 20 -18 20 -17 20 32 0 37 -5 54 -20
68 -20 18 -20 17 -20 -32z"/>
<path d="M952 950 c7 -11 17 -20 22 -20 5 0 1 9 -9 20 -10 11 -20 20 -22 20
-2 0 2 -9 9 -20z"/>
</g>
</svg>
